<mxfile host="app.diagrams.net" agent="Mozilla/5.0 (Windows NT 10.0; Win64; x64) AppleWebKit/537.36 (KHTML, like Gecko) Chrome/137.0.0.0 Safari/537.36" version="27.1.4">
  <diagram name="第 1 页" id="C3XO-QxFeKo6YsYlZuPU">
    <mxGraphModel dx="1042" dy="535" grid="1" gridSize="10" guides="1" tooltips="1" connect="1" arrows="1" fold="1" page="1" pageScale="1" pageWidth="827" pageHeight="1169" math="0" shadow="0">
      <root>
        <mxCell id="0" />
        <mxCell id="1" parent="0" />
        <mxCell id="s-qvJ4FQePMg8JL_yR_o-13" value="重点举措" style="swimlane;" parent="1" vertex="1">
          <mxGeometry x="82" y="200" width="200" height="200" as="geometry" />
        </mxCell>
        <mxCell id="2pKCkxB4eQbUYBymHreq-1" value="&lt;div style=&quot;line-height: 160%;&quot;&gt;&lt;div style=&quot;text-align: left;&quot;&gt;&lt;ul&gt;&lt;li&gt;&lt;font style=&quot;line-height: 160%; font-size: 13px;&quot;&gt;9：00之前必须起床&lt;/font&gt;&lt;/li&gt;&lt;li&gt;&lt;font style=&quot;line-height: 160%; font-size: 13px;&quot;&gt;上午读书1小时&lt;/font&gt;&lt;/li&gt;&lt;li&gt;&lt;font style=&quot;line-height: 160%; font-size: 13px;&quot;&gt;下午读书1小时&lt;/font&gt;&lt;/li&gt;&lt;li&gt;&lt;font style=&quot;line-height: 160%; font-size: 13px;&quot;&gt;晚上读书1小时&lt;/font&gt;&lt;/li&gt;&lt;li&gt;&lt;font style=&quot;line-height: 160%; font-size: 13px;&quot;&gt;玩出活动半小时&lt;/font&gt;&lt;/li&gt;&lt;li&gt;&lt;font style=&quot;line-height: 160%; font-size: 13px;&quot;&gt;参与家务半小时&lt;/font&gt;&lt;/li&gt;&lt;li&gt;&lt;span style=&quot;background-color: transparent; color: light-dark(rgb(0, 0, 0), rgb(255, 255, 255));&quot;&gt;&lt;font style=&quot;line-height: 160%; font-size: 13px;&quot;&gt;24：00 之前必须熄灯睡觉&lt;/font&gt;&lt;/span&gt;&lt;/li&gt;&lt;/ul&gt;&lt;/div&gt;&lt;div&gt;&lt;div&gt;&lt;/div&gt;&lt;/div&gt;&lt;/div&gt;" style="text;html=1;align=center;verticalAlign=middle;resizable=0;points=[];autosize=1;strokeColor=none;fillColor=none;" vertex="1" parent="s-qvJ4FQePMg8JL_yR_o-13">
          <mxGeometry x="-5" y="20" width="210" height="180" as="geometry" />
        </mxCell>
        <mxCell id="s-qvJ4FQePMg8JL_yR_o-23" value="" style="group" parent="1" vertex="1" connectable="0">
          <mxGeometry x="120" y="80" width="700" height="60" as="geometry" />
        </mxCell>
        <mxCell id="s-qvJ4FQePMg8JL_yR_o-20" style="edgeStyle=orthogonalEdgeStyle;rounded=0;orthogonalLoop=1;jettySize=auto;html=1;exitX=1;exitY=0.5;exitDx=0;exitDy=0;" parent="s-qvJ4FQePMg8JL_yR_o-23" source="s-qvJ4FQePMg8JL_yR_o-15" target="s-qvJ4FQePMg8JL_yR_o-16" edge="1">
          <mxGeometry relative="1" as="geometry" />
        </mxCell>
        <mxCell id="s-qvJ4FQePMg8JL_yR_o-15" value="改变生活习惯" style="rounded=0;whiteSpace=wrap;html=1;" parent="s-qvJ4FQePMg8JL_yR_o-23" vertex="1">
          <mxGeometry x="2" width="120" height="60" as="geometry" />
        </mxCell>
        <mxCell id="s-qvJ4FQePMg8JL_yR_o-21" style="edgeStyle=orthogonalEdgeStyle;rounded=0;orthogonalLoop=1;jettySize=auto;html=1;exitX=1;exitY=0.5;exitDx=0;exitDy=0;" parent="s-qvJ4FQePMg8JL_yR_o-23" source="s-qvJ4FQePMg8JL_yR_o-16" target="s-qvJ4FQePMg8JL_yR_o-17" edge="1">
          <mxGeometry relative="1" as="geometry" />
        </mxCell>
        <mxCell id="s-qvJ4FQePMg8JL_yR_o-16" value="学习生活技能" style="rounded=0;whiteSpace=wrap;html=1;" parent="s-qvJ4FQePMg8JL_yR_o-23" vertex="1">
          <mxGeometry x="210" width="120" height="60" as="geometry" />
        </mxCell>
        <mxCell id="s-qvJ4FQePMg8JL_yR_o-17" value="学习专业技能" style="rounded=0;whiteSpace=wrap;html=1;" parent="s-qvJ4FQePMg8JL_yR_o-23" vertex="1">
          <mxGeometry x="420" width="120" height="60" as="geometry" />
        </mxCell>
        <mxCell id="s-qvJ4FQePMg8JL_yR_o-24" value="生活技能学习" style="swimlane;" parent="1" vertex="1">
          <mxGeometry x="290" y="200" width="200" height="200" as="geometry" />
        </mxCell>
        <mxCell id="2pKCkxB4eQbUYBymHreq-3" value="&lt;div style=&quot;line-height: 160%;&quot;&gt;&lt;div style=&quot;text-align: left;&quot;&gt;&lt;ul&gt;&lt;li&gt;&lt;span style=&quot;font-size: 13px;&quot;&gt;烹饪技能&lt;/span&gt;&lt;/li&gt;&lt;li&gt;工具使用技能&lt;/li&gt;&lt;li&gt;寻找解决方案技能(AI)&lt;/li&gt;&lt;li&gt;持续学习技能&lt;/li&gt;&lt;li&gt;分析事件本身复盘技能&lt;/li&gt;&lt;li&gt;计划和降低风险技能&lt;/li&gt;&lt;li&gt;高情商技能&lt;/li&gt;&lt;/ul&gt;&lt;/div&gt;&lt;div&gt;&lt;div&gt;&lt;/div&gt;&lt;/div&gt;&lt;/div&gt;" style="text;html=1;align=center;verticalAlign=middle;resizable=0;points=[];autosize=1;strokeColor=none;fillColor=none;" vertex="1" parent="s-qvJ4FQePMg8JL_yR_o-24">
          <mxGeometry y="25" width="180" height="170" as="geometry" />
        </mxCell>
        <mxCell id="s-qvJ4FQePMg8JL_yR_o-25" value="专业技能学习" style="swimlane;" parent="1" vertex="1">
          <mxGeometry x="495" y="200" width="210" height="200" as="geometry" />
        </mxCell>
        <mxCell id="2pKCkxB4eQbUYBymHreq-6" value="&lt;div style=&quot;line-height: 160%;&quot;&gt;&lt;div style=&quot;text-align: left;&quot;&gt;&lt;ul&gt;&lt;li&gt;&lt;span style=&quot;font-size: 13px;&quot;&gt;英语听说读写提升&lt;/span&gt;&lt;/li&gt;&lt;li&gt;小语种学习-西班牙语&lt;/li&gt;&lt;li&gt;驾驶技能的提升&lt;/li&gt;&lt;li&gt;美甲技能的学习&lt;/li&gt;&lt;li&gt;平面设计美学的学习&lt;/li&gt;&lt;li&gt;自媒体相关学习&lt;/li&gt;&lt;/ul&gt;&lt;/div&gt;&lt;div&gt;&lt;div&gt;&lt;/div&gt;&lt;/div&gt;&lt;/div&gt;" style="text;html=1;align=center;verticalAlign=middle;resizable=0;points=[];autosize=1;strokeColor=none;fillColor=none;" vertex="1" parent="s-qvJ4FQePMg8JL_yR_o-25">
          <mxGeometry y="25" width="180" height="150" as="geometry" />
        </mxCell>
        <mxCell id="s-qvJ4FQePMg8JL_yR_o-26" value="实习和实践" style="swimlane;" parent="1" vertex="1">
          <mxGeometry x="711" y="200" width="200" height="200" as="geometry" />
        </mxCell>
        <mxCell id="2pKCkxB4eQbUYBymHreq-10" style="edgeStyle=orthogonalEdgeStyle;shape=flexArrow;rounded=0;orthogonalLoop=1;jettySize=auto;html=1;exitX=0.5;exitY=1;exitDx=0;exitDy=0;entryX=0.5;entryY=0;entryDx=0;entryDy=0;" edge="1" parent="1" source="s-qvJ4FQePMg8JL_yR_o-18" target="s-qvJ4FQePMg8JL_yR_o-26">
          <mxGeometry relative="1" as="geometry" />
        </mxCell>
        <mxCell id="s-qvJ4FQePMg8JL_yR_o-18" value="实践" style="rounded=0;whiteSpace=wrap;html=1;" parent="1" vertex="1">
          <mxGeometry x="751" y="80" width="120" height="60" as="geometry" />
        </mxCell>
        <mxCell id="s-qvJ4FQePMg8JL_yR_o-22" style="edgeStyle=orthogonalEdgeStyle;rounded=0;orthogonalLoop=1;jettySize=auto;html=1;exitX=1;exitY=0.5;exitDx=0;exitDy=0;entryX=0;entryY=0.5;entryDx=0;entryDy=0;" parent="1" source="s-qvJ4FQePMg8JL_yR_o-17" target="s-qvJ4FQePMg8JL_yR_o-18" edge="1">
          <mxGeometry relative="1" as="geometry" />
        </mxCell>
        <mxCell id="2pKCkxB4eQbUYBymHreq-2" style="edgeStyle=orthogonalEdgeStyle;shape=flexArrow;rounded=0;orthogonalLoop=1;jettySize=auto;html=1;exitX=0.5;exitY=1;exitDx=0;exitDy=0;entryX=0.5;entryY=0;entryDx=0;entryDy=0;" edge="1" parent="1" source="s-qvJ4FQePMg8JL_yR_o-15" target="s-qvJ4FQePMg8JL_yR_o-13">
          <mxGeometry relative="1" as="geometry" />
        </mxCell>
        <mxCell id="2pKCkxB4eQbUYBymHreq-7" style="edgeStyle=orthogonalEdgeStyle;shape=flexArrow;rounded=0;orthogonalLoop=1;jettySize=auto;html=1;exitX=0.5;exitY=1;exitDx=0;exitDy=0;entryX=0.5;entryY=0;entryDx=0;entryDy=0;" edge="1" parent="1" source="s-qvJ4FQePMg8JL_yR_o-16" target="s-qvJ4FQePMg8JL_yR_o-24">
          <mxGeometry relative="1" as="geometry" />
        </mxCell>
        <mxCell id="2pKCkxB4eQbUYBymHreq-9" style="edgeStyle=orthogonalEdgeStyle;shape=flexArrow;rounded=0;orthogonalLoop=1;jettySize=auto;html=1;exitX=0.5;exitY=1;exitDx=0;exitDy=0;entryX=0.5;entryY=0;entryDx=0;entryDy=0;" edge="1" parent="1" source="s-qvJ4FQePMg8JL_yR_o-17" target="s-qvJ4FQePMg8JL_yR_o-25">
          <mxGeometry relative="1" as="geometry" />
        </mxCell>
      </root>
    </mxGraphModel>
  </diagram>
</mxfile>
